<?xml version="1.0" encoding="utf-8"?>
<!-- Generator: Adobe Illustrator 24.2.0, SVG Export Plug-In . SVG Version: 6.00 Build 0)  -->
<svg version="1.1" id="Layer_1" xmlns="http://www.w3.org/2000/svg" xmlns:xlink="http://www.w3.org/1999/xlink" x="0px" y="0px"
	 viewBox="0 0 24 15.7" style="enable-background:new 0 0 24 15.7;" xml:space="preserve">
<path d="M22,2.3h-7v-2h7V2.3z M23.7,12.3c-0.4,1.3-2,3-5.1,3c-3.1,0-5.6-1.7-5.6-5.7c0-3.9,2.3-5.9,5.5-5.9c3.1,0,5,1.8,5.4,4.4
	C24,8.6,24,9.3,24,10.3h-8c0.1,3.2,3.5,3.3,4.6,2C20.6,12.3,23.7,12.3,23.7,12.3z M16,8.3h5c-0.1-1.5-1.1-2.2-2.5-2.2
	C17.1,6.1,16.3,6.8,16,8.3z M6.5,15.3H0v-15h7c5.5,0.1,5.6,5.4,2.7,6.9C13.1,8.5,13.3,15.3,6.5,15.3z M3,6.3h3.6c2.5,0,2.9-3-0.3-3
	H3C3,3.3,3,6.3,3,6.3z M6.4,9.3H3v3h3.3C9.4,12.3,9.2,9.3,6.4,9.3z"/>
</svg>
