<?xml version="1.0" encoding="utf-8"?>
<!-- Generator: Adobe Illustrator 24.2.0, SVG Export Plug-In . SVG Version: 6.00 Build 0)  -->
<svg version="1.1" id="Layer_1" xmlns="http://www.w3.org/2000/svg" xmlns:xlink="http://www.w3.org/1999/xlink" x="0px" y="0px"
	 viewBox="0 0 82.7 84" style="enable-background:new 0 0 82.7 84;" xml:space="preserve">
<g>
	<g>
		<path d="M40.1,46c-0.6,1.4-1.5,2.7-2.6,3.7c-1.1,1.1-2.4,1.9-4,2.5c-1.5,0.6-3.2,0.9-5.1,0.9h-9.2V29.5h9.2c1.8,0,3.5,0.3,5.1,0.9
			c1.5,0.6,2.9,1.4,4,2.5c1.1,1.1,2,2.3,2.6,3.7c0.6,1.4,0.9,3,0.9,4.6v0.1C41,43,40.7,44.5,40.1,46z M35.6,41.3c0-1-0.2-2-0.5-2.9
			c-0.3-0.9-0.8-1.6-1.4-2.3c-0.6-0.6-1.4-1.1-2.2-1.5c-0.9-0.3-1.8-0.5-2.9-0.5h-4v14.2h4c1.1,0,2-0.2,2.9-0.5
			c0.9-0.3,1.6-0.8,2.2-1.4c0.6-0.6,1.1-1.4,1.4-2.2C35.5,43.4,35.6,42.4,35.6,41.3L35.6,41.3z"/>
		<path d="M55.7,47.5c-0.5,1.3-1.2,2.4-2.1,3.3c-0.9,0.9-2,1.5-3.3,2c-1.3,0.4-2.7,0.7-4.3,0.7c-3.2,0-5.7-0.9-7.5-2.6
			c-1.8-1.7-2.7-4.4-2.7-7.8V29.5h5.2v13.3c0,1.9,0.4,3.4,1.3,4.4c0.9,1,2.1,1.5,3.7,1.5s2.8-0.5,3.7-1.4c0.9-0.9,1.3-2.4,1.3-4.2
			V29.5h5.2v13.3C56.4,44.6,56.2,46.2,55.7,47.5z"/>
		<path d="M59.5,53.1V29.5h5.2v23.6H59.5z"/>
	</g>
	<g>
		<path d="M16.7,12.9c-0.5-0.6-0.4-1.4,0.2-1.9s1.3-0.4,1.9,0.2c0.5,0.6,0.4,1.4-0.2,1.9S17.2,13.5,16.7,12.9z"/>
		<path d="M26.7,9.8c0.5-0.2,0.7-0.7,0.8-1.4l0.2,0.2c0,1.1-0.3,1.8-1.1,2.1c-1.1,0.6-2.4,0-3.1-1.5c-0.7-1.5-0.3-3,0.9-3.5
			C25,5.3,25.6,5.5,26.5,6l0,0.3C25.8,6,25.4,6,25,6.2c-0.7,0.3-0.9,1.1-0.3,2.4C25.2,9.8,26,10.1,26.7,9.8z M29.4,8.6L29.6,9L28,10
			l-0.6-0.9L25.9,6l0-0.1l-1.1-2.2L24,3.9l-0.2-0.4l1.6-1.3l0.2,0l0.6,1.4L29,9.3l-0.7-0.4L29.4,8.6z"/>
		<path d="M34.4,4.4c0.1,0.2,0.1,0.4,0.1,0.6l-4,1.1l-0.1-0.5L32.6,5c0.5-0.1,0.6-0.4,0.5-0.8c-0.2-0.6-0.7-1-1.2-0.8
			c-0.6,0.1-1,0.8-0.6,2.3c0.4,1.3,1.2,1.8,2.1,1.5c0.6-0.2,0.9-0.5,1.2-1l0.4,0.2c-0.2,0.9-0.8,1.5-1.8,1.8c-1.5,0.4-2.7-0.3-3.2-2
			c-0.5-1.7,0.5-3,1.8-3.4C33,2.5,34,3.2,34.4,4.4z"/>
		<path d="M36.6,2.7l-1-0.1l0-0.4l2.8-0.3l0,0.4l-1.1,0.3L36.6,2.7z M37.3,2l1.9,4l-0.5,0.9l1.3-5.1l0.7-0.1L39.1,7l-0.6,0.1l-2.7-5
			L37.3,2z M40,2.3l-1-0.1l0-0.4l2-0.2l0,0.4l-0.8,0.3L40,2.3z"/>
		<path d="M47.1,4c0,0.2-0.1,0.4-0.1,0.6l-4.1-0.3l0-0.5l2.3,0.2c0.5,0,0.7-0.2,0.7-0.6c0-0.7-0.3-1.1-0.9-1.2c-0.6,0-1.2,0.5-1.3,2
			c-0.1,1.3,0.5,2.1,1.5,2.1c0.6,0,1.1-0.2,1.5-0.6L47,6c-0.5,0.8-1.2,1.2-2.3,1.1c-1.5-0.1-2.5-1.2-2.3-2.9
			c0.1-1.7,1.5-2.7,2.8-2.6C46.4,1.8,47.2,2.7,47.1,4z"/>
		<path d="M50.8,7.5l-0.1,0.4l-2.8-0.6L48,6.9l1.1,0l0.5,0.1L50.8,7.5z M51.5,0l0.1,0.1l-0.4,1.5l-0.8,4C50.3,6.3,50.1,7,50,7.8
			l-1.3-0.3C48.8,6.8,49,6,49.2,5.3l1-4.5l-0.7-0.3l0.1-0.4L51.5,0z"/>
		<path d="M52.7,5.8c0.6-1.6,2.1-2.1,3.4-1.6c1.3,0.5,2.1,1.9,1.5,3.5s-2.1,2.2-3.4,1.6C52.8,8.7,52.1,7.4,52.7,5.8z M56.3,7.1
			c0.5-1.4,0.4-2.2-0.3-2.5c-0.7-0.3-1.4,0.3-1.9,1.7c-0.5,1.4-0.4,2.2,0.3,2.5C55.1,9,55.8,8.5,56.3,7.1z"/>
		<path d="M59.1,13.8l-0.2,0.4l-2.5-1.5l0.2-0.4l1.1,0.4l0.5,0.3L59.1,13.8z M59.8,8.5c0.3-0.5,0.4-0.8,0.7-1.1l-0.6-0.5l0.2-0.3
			L62,6.9L62.1,7l-0.4,0.8l0,0.1l-1.8,2.9l-0.1,0.1l-0.5,0.8c-0.4,0.6-0.8,1.3-1.2,2L57,13c0.5-0.7,0.9-1.4,1.3-2L59.8,8.5z
			 M62.7,8.2c-0.4-0.3-1.1-0.2-1.8,0l0-0.2c1.1-0.6,1.9-0.6,2.7-0.2c1,0.6,1.3,1.9,0.4,3.4c-0.9,1.5-2.3,1.8-3.4,1.2
			c-0.7-0.4-1-1.1-0.9-2.4l0.2-0.1c0.1,0.8,0.3,1.3,0.7,1.6c0.6,0.4,1.4,0.2,2.1-1S63.3,8.6,62.7,8.2z"/>
		<path d="M65.7,15.6l-0.3,0.3L63.5,14l0.3-0.3l0.9,0.6l0.4,0.4L65.7,15.6z M64,14.5c0.4-0.3,1.2-1.1,1.6-1.6l0.4-0.4
			c0.4-0.4,0.6-0.6,0.9-0.9L66.5,11l0.3-0.3l1.8,0.8l0,0.2l-0.8,0.9l-1.2,1.2c-0.5,0.5-1.3,1.3-1.6,1.6L64,14.5z M67.4,17l0.6,0.9
			l-0.3,0.3l-1.9-1.9l0.3-0.3l0.9,0.6L67.4,17z M69.7,15.4l-0.8,0.8c-0.5,0.5-1.3,1.3-1.6,1.6l-0.9-1c0.4-0.3,1.2-1.1,1.6-1.6
			l0.7-0.7c0.6-0.6,0.7-1,0.3-1.4c-0.3-0.4-0.9-0.5-1.5-0.5l-0.2-0.2l0.4-0.4l0.4,0.4l-0.5-0.1c1-0.2,1.9,0,2.4,0.6
			C70.7,13.7,70.6,14.4,69.7,15.4z M69.7,19.3l0.6,0.9L70,20.5l-1.9-1.9l0.3-0.3l0.9,0.6L69.7,19.3z M71.9,17.7l-0.8,0.8
			c-0.5,0.5-1.3,1.3-1.6,1.6l-0.9-1c0.4-0.3,1.2-1.1,1.6-1.6l0.7-0.7c0.7-0.6,0.7-1,0.3-1.4c-0.3-0.3-0.8-0.5-1.6-0.5l-0.2-0.2
			l0.4-0.4l0.5,0.5l-0.5-0.2c1.2-0.2,1.9,0,2.4,0.6C73,16,72.9,16.7,71.9,17.7z"/>
		<path d="M75.6,24c-0.2,0.1-0.4,0.2-0.5,0.3l-2.1-3.5l0.4-0.3l1.2,2c0.3,0.4,0.5,0.4,0.9,0.2c0.6-0.3,0.7-0.9,0.5-1.4
			c-0.3-0.5-1.1-0.7-2.4,0.1c-1.2,0.7-1.4,1.6-0.9,2.4c0.3,0.5,0.8,0.8,1.3,0.9L73.8,25c-0.9,0.1-1.7-0.3-2.2-1.2
			c-0.8-1.3-0.4-2.7,1-3.6c1.5-0.9,3-0.4,3.7,0.8C77,22.1,76.7,23.3,75.6,24z"/>
		<path d="M74.8,29l-0.4,0.2l-0.9-2.5l0.4-0.2l0.6,1l0.2,0.5L74.8,29z M73.7,27.3c0.5-0.1,1.5-0.5,2.1-0.8l0.5-0.2
			c0.6-0.2,0.8-0.3,1.2-0.5l-0.2-0.7l0.4-0.1l1.3,1.5l0,0.2l-1.1,0.5l-1.6,0.6c-0.6,0.2-1.7,0.6-2.1,0.8L73.7,27.3z M75.8,31
			l0.2,1.1l-0.4,0.2l-0.9-2.5l0.4-0.2l0.6,0.9L75.8,31z M78.5,30.4l-1.1,0.4c-0.6,0.2-1.7,0.6-2.1,0.8l-0.5-1.3
			c0.5-0.2,1.5-0.5,2.1-0.8l1-0.4c0.8-0.3,1-0.6,0.8-1.1c-0.2-0.4-0.6-0.8-1.2-1.1l-0.1-0.3l0.6-0.2l0.2,0.6l-0.4-0.3
			c1.1,0.3,1.7,0.8,2,1.5C80.1,29.2,79.7,29.9,78.5,30.4z"/>
		<path d="M76.7,35.6c0,0.2,0.2,0.4,0.4,0.6l-0.2,0.3c-0.5-0.2-0.8-0.6-1-1.3c-0.2-0.9,0.1-1.4,1.1-1.6c0.3-0.1,0.6-0.1,1-0.2
			l2.3-0.4l-0.2-0.8l0.5-0.1l0.4,1.3l-0.5-0.4l1.9,0.1l0.2,0.9l-1.9,0.3l-3.4,0.7C76.8,35,76.6,35.2,76.7,35.6z M81.4,35.4l-0.6,0.1
			l-0.4-1.9l0.6-0.1L81.4,35.4z"/>
		<path d="M80.2,40.6c0.8,0,1.3,0.6,1.3,1.3s-0.5,1.3-1.3,1.3c-0.8,0-1.3-0.6-1.3-1.3S79.4,40.5,80.2,40.6z"/>
		<path d="M75.3,53.1l-0.4-0.1l0.4-1.9l1,0.1l3.3,0.8l0.1,0.1l2.4,0.6l0.3-0.8l0.4,0.1l0,2l-0.1,0.1l-1.5-0.4L75,52.3l0.8-0.3
			L75.3,53.1z M76.2,50.2c-0.1,0.5,0.1,1,0.5,1.5l-0.3,0.1c-0.8-0.7-1.1-1.4-0.9-2.3c0.3-1.2,1.5-1.9,3.2-1.4c1.7,0.4,2.4,1.7,2.1,3
			c-0.2,0.8-0.7,1.1-1.7,1.4l-0.2-0.2c0.7-0.4,1-0.7,1.1-1.1c0.2-0.7-0.3-1.4-1.6-1.8C77.1,49.1,76.4,49.5,76.2,50.2z"/>
		<path d="M75.3,59.5c-0.2-0.1-0.4-0.2-0.5-0.3l1.7-3.7l0.5,0.2l-1,2.1c-0.2,0.5-0.1,0.7,0.3,0.8c0.6,0.3,1.2,0.1,1.4-0.4
			c0.2-0.5,0-1.3-1.4-1.9c-1.2-0.6-2.1-0.2-2.5,0.6c-0.3,0.6-0.2,1.1,0,1.6l-0.4,0.2c-0.6-0.7-0.7-1.6-0.2-2.5
			c0.6-1.4,2-1.9,3.5-1.2c1.6,0.7,2,2.3,1.4,3.6C77.6,59.7,76.5,60.1,75.3,59.5z"/>
		<path d="M72,59.5l1,0.7l-0.4,0.6l-1.3-0.5l0.5-0.3l0.3,0.2c-0.5,0.2-0.8,0.4-1.1,0.9c-0.4,0.6-0.4,1.1,0,1.3
			c0.3,0.2,0.7,0.1,1.3-0.3l0.5-0.3c0.7-0.5,1.4-0.7,2-0.2c0.7,0.5,0.9,1.5,0.2,2.6c-0.3,0.5-0.8,0.8-1.3,1.1l-0.9-0.7l0.4-0.6
			l1.2,0.5l-0.5,0.3l-0.3-0.2c0.4-0.2,0.7-0.3,0.9-0.7c0.3-0.5,0.3-0.9,0-1.1c-0.3-0.2-0.6-0.2-1.2,0.3l-0.4,0.3
			c-0.9,0.7-1.6,0.7-2.2,0.3c-0.8-0.5-0.9-1.6-0.1-2.8C71,60.2,71.4,59.8,72,59.5z"/>
		<path d="M67.2,65.9l-0.3-0.3l1.8-2l0.3,0.3l-0.6,1l-0.3,0.4L67.2,65.9z M68.2,64.1c0.3,0.3,1.2,1.1,1.7,1.5l0.4,0.3
			c0.4,0.4,0.7,0.6,1,0.9l0.6-0.5l0.3,0.3l-0.8,1.9l-0.2,0.1l-1.1-1l-1.1-1c-0.5-0.4-1.3-1.2-1.7-1.5L68.2,64.1z M73.7,68.7
			c0.3,0.3,0.3,0.8,0,1.1s-0.8,0.4-1.1,0.1c-0.3-0.3-0.3-0.8,0-1.1S73.3,68.4,73.7,68.7z"/>
		<path d="M62.4,68.3c0.3,0.3,0.7,0.4,1.2,0l0.9-0.8c0.3-0.2,0.5-0.4,0.7-0.5l0,0c0.5-0.2,0.9-0.2,1.2,0.2c0.3,0.4,0.3,0.9,0.2,1.8
			l-0.3,0c0-0.4,0-0.6-0.2-0.8C66,68,65.7,68,65.4,68.3l-1,0.9c-1.1,0.9-1.9,0.8-2.5,0.1c-0.7-0.8-0.5-2.1,1-3.4
			c1.3-1.1,2.1-1,2.6-0.5c0.3,0.4,0.3,1-0.2,1.9l-0.1,0c0-0.5,0-0.8-0.3-1.1c-0.4-0.5-1-0.4-1.7,0.2C62.3,67.1,62.1,67.8,62.4,68.3z
			 M67.8,72c-1,0.9-2,0.8-2.7,0c-0.7-0.8-0.5-1.8,0.5-2.7c1-0.9,2-0.8,2.7,0C69,70.1,68.9,71.1,67.8,72z M65.7,73.8l-0.2,0l-0.5-0.6
			l1.2-1l0.2,0.2L65.7,73.8z M67.4,70c-0.5-0.6-1.1-0.8-1.5-0.4c-0.5,0.4-0.4,1,0.1,1.6c0.5,0.6,1.1,0.8,1.5,0.4
			C68,71.2,67.9,70.6,67.4,70z"/>
		<path d="M57.4,73.3l-1,0.3l-0.2-0.4l2.3-1.3l0.2,0.4L57.9,73L57.4,73.3z M58.4,75.9l-0.6-1c-0.3-0.6-0.9-1.6-1.1-2l1.2-0.7
			c0.2,0.4,0.7,1.4,1.1,2l0.5,0.9c0.4,0.7,0.7,0.9,1.2,0.6c0.4-0.2,0.7-0.7,0.9-1.4l0.3-0.1l0.3,0.5l-0.6,0.3l0.3-0.4
			c-0.1,1.1-0.6,1.8-1.2,2.2C59.8,77.3,59.1,77.1,58.4,75.9z M59.3,72L59,71.6l2.3-1.3l0.2,0.4l-0.9,0.7l-0.5,0.3L59.3,72z
			 M60.8,70.7c0.2,0.4,0.8,1.4,1.1,2l0.3,0.5c0.3,0.5,0.4,0.8,0.7,1.1l0.7-0.3l0.2,0.4l-1.3,1.5l-0.2,0l-0.7-1l-0.8-1.5
			c-0.3-0.6-0.9-1.6-1.1-2L60.8,70.7z"/>
		<path d="M53.1,78c0.2,0.8-0.2,1.4-0.9,1.6c-0.7,0.2-1.4-0.2-1.6-0.9c-0.2-0.8,0.2-1.4,0.9-1.6S52.9,77.3,53.1,78z"/>
		<path d="M41.2,78.7c0,1.3,0.5,2,1.3,2c0.5,0,1-0.4,1.5-1l0.1,0.2c-0.6,1.1-1.3,1.6-2.2,1.6c-1.2,0-2.1-0.9-2.1-2.7
			c0-1.7,1-2.8,2.2-2.8c0.8,0,1.4,0.4,2,1.5L44,77.7c-0.5-0.6-1-1-1.5-1C41.8,76.7,41.2,77.4,41.2,78.7z M45.5,76.5l-1.1,0.2
			l0.4-0.7c0,0.5,0,1.6,0,2.3l0.1,4.7l0.8,0.1l0,0.4L43.8,84l-0.2-0.1l0-1.5l0-1.9l0-0.1l-0.1-3.5l0.2-1l1.8,0.1L45.5,76.5z"/>
		<path d="M36.6,79.5l-0.7-0.1l0.2-0.2c-0.4,1.1-1.2,1.6-1.9,1.5c-0.4-0.1-0.7-0.3-0.8-0.7c0.1-0.5,0.4-0.8,0.8-0.7
			c0.3,0,0.5,0.2,0.7,0.5l0.2,0.4l-0.5-0.1c0.6-0.2,1-0.7,1.4-1.4l0.6,0.1L36.6,79.5z M38.5,76.4l-1.1,0l-0.7-0.1L35.6,76l0.1-0.4
			l2.9,0.5L38.5,76.4z M37.5,78.1l-0.1,0.6c-0.1,0.6-0.1,0.9-0.2,1.3l0.7,0.2l-0.1,0.4L36,81l-0.2-0.1l0.1-1.3l0.3-1.6
			c0.1-0.7,0.3-1.8,0.3-2.3l1.4,0.2C37.8,76.4,37.6,77.5,37.5,78.1z"/>
		<path d="M30.4,75.1l-0.8,2.5c-0.3,1-0.2,1.3,0.5,1.5c0.2,0.1,0.5,0.1,1,0.1l-0.7,0.2l0.4-0.7c0.2-0.5,0.5-0.6,0.9-0.5
			c0.3,0.1,0.5,0.3,0.4,0.7c-0.4,0.8-1.4,1.1-2.6,0.6c-1.2-0.4-1.5-1.1-1.1-2.4l0.7-2.2c0.1-0.3,0-0.5-0.2-0.6c-0.1,0-0.3,0-0.4,0.1
			l-0.2-0.3c0.4-0.4,0.8-0.5,1.3-0.3C30.3,74,30.6,74.5,30.4,75.1z M30.8,77.3c-0.5,0-1.2,0-1.8-0.1l0.1-0.4c0.5,0,1.1,0.1,1.5,0
			c0.8-0.1,1.1-0.4,1.2-0.7c0.2-0.5-0.1-0.9-0.5-1c-0.3-0.1-0.5,0-1.1,0.1l-0.4,0.1l-0.1-0.2l0.5-0.3c0.7-0.4,1.2-0.6,1.9-0.4
			c0.8,0.3,1.2,0.9,0.9,1.7C33,77,32.4,77.3,30.8,77.3z"/>
		<path d="M21.6,73.7l0.5-1c0.3-0.6,0.9-1.6,1.1-2l1.2,0.7c-0.3,0.4-0.8,1.4-1.1,2l-0.5,0.9c-0.4,0.7-0.4,1.1,0.1,1.4
			c0.4,0.2,1,0.2,1.7,0l0.3,0.1l-0.3,0.5L24,75.9l0.5,0c-1,0.5-1.8,0.5-2.5,0.1C21.1,75.6,21,74.8,21.6,73.7z M23.3,71.5l-0.8-0.7
			l0.2-0.4l2.3,1.3L24.8,72l-1.1-0.3L23.3,71.5z M27.3,72.9c-0.3,0.4-0.8,1.4-1.1,2l-0.3,0.5c-0.3,0.5-0.4,0.8-0.6,1.2l0.6,0.5
			l-0.2,0.4l-1.9-0.3l-0.1-0.2l0.5-1.1l0.8-1.5c0.3-0.6,0.9-1.6,1.1-2L27.3,72.9z M25.3,72.3l0.2-0.4l2.3,1.3l-0.2,0.4l-1.1-0.3
			L26.1,73L25.3,72.3z"/>
		<path d="M17.1,66.4l0.3-0.3l1.5,1.1L18.4,68l-2.2,2.6l-0.1,0.1l-1.6,1.9l0.6,0.6l-0.3,0.3l-1.8-0.9l-0.1-0.2l1-1.1l4.1-4.8
			l-0.1,0.8L17.1,66.4z M19.3,68.4c-0.4-0.3-0.9-0.3-1.6-0.2l0.1-0.3c1-0.4,1.7-0.4,2.4,0.2c1,0.8,1,2.2-0.1,3.5
			c-1.1,1.3-2.6,1.4-3.6,0.6c-0.6-0.5-0.7-1.1-0.5-2.1l0.2-0.1c0,0.8,0.2,1.2,0.5,1.4c0.6,0.5,1.4,0.4,2.3-0.7
			C19.9,69.8,19.9,68.9,19.3,68.4z"/>
		<path d="M16.5,65.4l-1,0.8l-0.5-0.6l0.9-1.1l0.2,0.6l-0.3,0.3c-0.1-0.5-0.2-0.9-0.5-1.3c-0.5-0.6-0.9-0.7-1.3-0.4
			c-0.3,0.3-0.3,0.6,0,1.3l0.2,0.5c0.3,0.8,0.3,1.5-0.3,2c-0.7,0.6-1.7,0.5-2.6-0.5c-0.4-0.5-0.6-0.9-0.7-1.5l0.9-0.7l0.5,0.5
			l-0.8,1L11,65.8l0.3-0.2c0,0.4,0.1,0.8,0.4,1.1c0.4,0.4,0.8,0.5,1.1,0.3c0.3-0.3,0.3-0.5,0-1.3l-0.2-0.4c-0.4-1-0.3-1.7,0.3-2.2
			c0.7-0.6,1.8-0.4,2.7,0.7C16.1,64.3,16.4,64.8,16.5,65.4z"/>
		<path d="M8.7,60.1c-0.7,0.4-1.5,0.1-1.8-0.6c-0.3-0.6-0.1-1.4,0.6-1.8c0.7-0.4,1.5-0.1,1.8,0.6C9.6,59,9.4,59.8,8.7,60.1z"/>
		<path d="M1.3,48l0.1,1.2l-0.5,0.1l-0.5-2.5l0.5-0.1l0.4,1.1L1.3,48z M7.4,48.6c-0.2-1.1-1-1.5-2.8-1.2l-3.9,0.8l-0.1-0.6l4.1-0.9
			c2.2-0.5,3.4,0.4,3.7,2c0.3,1.6-0.2,2.8-2.3,3.2l-1.1,0.2c-1.1,0.2-2.2,0.5-3.2,0.7l-0.3-1.4c1.1-0.2,2.1-0.4,3.2-0.7l0.8-0.2
			C7.2,50.3,7.6,49.6,7.4,48.6z M2.4,53.7l-0.5,0.1l-0.7-3.2l0.5-0.1l0.5,1.4l0.1,0.3L2.4,53.7z"/>
		<path d="M0.8,44.5l-0.5,0l-0.1-3.3l0.5,0l0.2,1.5l0,0.3L0.8,44.5z M3.6,43.4c-1.1,0-2.2,0.1-3.4,0.1l0-1.5c1.1,0,2.2,0,3.4-0.1
			L4,42c1.1,0,2.2-0.1,3.4-0.1l0,1.5c-1.1,0-2.2,0-3.4,0.1L3.6,43.4z M6.7,42.5L6.9,41l0.5,0l0.1,3.3l-0.5,0l-0.2-1.5L6.7,42.5z"/>
		<path d="M0,36.4l0.1-0.9l9.1,3.8l-0.1,0.9L0,36.4z"/>
		<path d="M1.3,33.5l-0.5-0.1l0.9-3.2l0.5,0.1L2,31.9l-0.1,0.3L1.3,33.5z M8.2,31.4c0.3-1.1-0.2-1.8-1.9-2.3L2.4,28l0.2-0.6l4,1.2
			c2.2,0.6,2.8,1.9,2.3,3.5c-0.4,1.5-1.5,2.4-3.5,1.8l-1.1-0.3c-1.1-0.3-2.1-0.6-3.2-0.9l0.4-1.4c1,0.3,2.1,0.6,3.2,0.9l0.8,0.2
			C7.1,32.8,7.9,32.4,8.2,31.4z M3,28l-0.4,1.1L2.1,29l0.7-2.5l0.5,0.1l-0.2,1.1L3,28z"/>
		<path d="M3.8,24.3l1.6-2.8l0.4,0.2l-0.6,1.3L5,23.4l-0.8,1.1L3.8,24.3z M4,23.9l0.7-1.4l8.4-0.3l-0.7,1.4L4,23.9z M5.8,20.7
			l1.1-2.1l0.4,0.2l-0.4,1l-0.1,0.2l-0.6,0.9L5.8,20.7z M6.3,19.6L6.7,19l2.1,3.9l-0.4,0.2L6.3,19.6z M8.1,23.3L8.6,23l2,3.7
			l-0.3,0.6L8.1,23.3z M9.6,27.6l0.4-1l0.1-0.2l0.6-0.9l0.4,0.2L10,27.8L9.6,27.6z M11.3,24.4l0.6-1.4l0.2-0.3l0.9-1.2l0.4,0.2
			l-1.6,2.9L11.3,24.4z"/>
	</g>
</g>
</svg>
